<svg xmlns="http://www.w3.org/2000/svg" width="74.059" height="74.251" viewBox="0 0 74.059 74.251"><g transform="translate(1.047 1.109)"><path d="M1189.014,773l-.663-.367c-13.371-7.351-22.4-16.131-26.865-26.091-5.237-11.7-1.784-27.065,7.864-34.984a40.932,40.932,0,0,1,8.8-5.418c2.04-1.017,4.066-1.958,6.1-2.9,1.391-.641,2.776-1.285,4.166-1.955l.6-.287.593.287c1.434.688,2.852,1.346,4.272,2,2.008.928,4.005,1.857,6.022,2.856a40.747,40.747,0,0,1,8.868,5.445c9.618,7.9,13.063,23.266,7.83,34.958-4.441,9.931-13.5,18.709-26.925,26.091Z" transform="translate(-1159.045 -701)" fill="#fff" stroke="#293340" stroke-width="2"/><g transform="translate(5.592 15.421)"><g transform="translate(18.234 31.931)" fill="#fff" stroke="#293340" stroke-width="2"><rect width="11.221" height="5.024" stroke="none"/><rect x="1" y="1" width="9.221" height="3.024" fill="none"/></g><g transform="translate(0 0)" fill="#fff" stroke="#293340" stroke-width="2"><rect width="47.689" height="33.29" rx="3" stroke="none"/><rect x="1" y="1" width="45.689" height="31.29" rx="2" fill="none"/></g><rect width="44.735" height="8.057" rx="1" transform="translate(1.477 1.455)" fill="#07f"/><line x2="24.967" transform="translate(10.737 36.522)" fill="none" stroke="#293340" stroke-linecap="round" stroke-width="2"/><path d="M1167.226,720.07l-.181-.1c-3.65-1.947-6.115-4.272-7.333-6.91a7.992,7.992,0,0,1,2.146-9.266,11.225,11.225,0,0,1,2.4-1.435c.557-.269,1.11-.518,1.664-.768.38-.17.758-.34,1.137-.518l.165-.076.162.076c.391.182.779.356,1.166.529.548.246,1.094.492,1.644.756a11.169,11.169,0,0,1,2.421,1.442,7.991,7.991,0,0,1,2.138,9.259c-1.212,2.63-3.686,4.955-7.35,6.91Z" transform="translate(-1143.199 -689.699)" fill="#07f" stroke="#293340" stroke-width="2"/><g transform="translate(18.222 14.365)"><path d="M-932.814-117.163l-5.791-12.1-5.791,12.1" transform="translate(944.395 129.265)" fill="none" stroke="#fff" stroke-linecap="round" stroke-linejoin="round" stroke-width="2"/><line x2="7.205" transform="translate(2.188 7.529)" stroke-width="2" stroke="#fff" stroke-linecap="round" stroke-linejoin="round" fill="none"/></g></g><g transform="translate(44.226 40.42)"><g transform="translate(0 0)"><path d="M471.043,1129.177a21.877,21.877,0,0,1-6.752.232,11.811,11.811,0,0,1-5.161-3c-.536-.6-3.729-3.832-3.365-4.881a8.191,8.191,0,0,1,1.917-2.422l-7.306-7.448-.222-.928s.908-1.473,1.393-1.7a1.669,1.669,0,0,1,2.341.262c1.049,1.09,3.794,3.714,3.794,3.714s1.332-3.007,2.947-2.381a1.12,1.12,0,0,1,.605,0s1.251-1.756,2.038-1.938,2.18.828,2.22.868a2.456,2.456,0,0,1,2.24-1.332c1.292.182,3.048,2.058,3.451,2.4a56.252,56.252,0,0,1,4.3,4.622c.646.949,2.644,4.541,2.341,7.367S471.835,1128.925,471.043,1129.177Z" transform="translate(-450.082 -1108.21)" fill="#fff" stroke="#293340" stroke-width="2"/><g transform="translate(0 0.306)"><path d="M918.963,116.758l-7.936-7.936c-.875-.875-1.894-1.021-3.029.114s-.99,2.154-.115,3.029l11.757,11.757" transform="translate(-907.187 -108.125)" fill="rgba(0,0,0,0)" stroke="#293340" stroke-linecap="round" stroke-miterlimit="10" stroke-width="2"/><path d="M938.85,112.424,936,109.571c-1.206-1.207-2.263-1.7-3.434-.73a2.749,2.749,0,0,0-1.078,1.627" transform="translate(-920.084 -108.232)" fill="rgba(0,0,0,0)" stroke="#293340" stroke-linecap="round" stroke-miterlimit="10" stroke-width="2"/><path d="M921.1,131.172a6.815,6.815,0,0,0-1.095.9c-.788.788-.757,2,.237,3.238a35.5,35.5,0,0,0,2.49,2.854,8.127,8.127,0,0,0,5.076,2.873,28.426,28.426,0,0,0,6.627.015" transform="translate(-913.698 -120.359)" fill="rgba(0,0,0,0)" stroke="#293340" stroke-linecap="round" stroke-miterlimit="10" stroke-width="2"/><path d="M930.791,115.925l-2.645-2.646c-1.206-1.206-2.617-1.963-3.86-.72a5.082,5.082,0,0,0-1.295,1.844" transform="translate(-915.576 -110.14)" fill="rgba(0,0,0,0)" stroke="#293340" stroke-linecap="round" stroke-miterlimit="10" stroke-width="2"/></g></g></g></g></svg>